<svg width="49" height="49" viewBox="0 0 49 49" fill="none" xmlns="http://www.w3.org/2000/svg">
<g clip-path="url(#clip0_14_688)">
<path d="M38.0924 9.47384L25.0364 1.88984C23.8204 1.21784 22.5404 0.881836 21.1964 0.881836C19.8524 0.881836 18.5884 1.21784 17.4044 1.88984L4.30045 9.47384C3.11645 10.1778 2.18845 11.1058 1.51645 12.2578C0.844449 13.4098 0.492449 14.6738 0.460449 16.0498V31.1698C0.492449 32.5458 0.844449 33.8178 1.51645 34.9858C2.18845 36.1538 3.11645 37.0898 4.30045 37.7938L13.2284 42.9298C13.5804 43.1218 13.9404 43.1698 14.3084 43.0738C14.6764 42.9778 14.9644 42.7618 15.1724 42.4258C15.3804 42.0898 15.4364 41.7378 15.3404 41.3698C15.2444 41.0018 15.0204 40.7058 14.6684 40.4818L5.69245 35.3458C4.95645 34.8978 4.38045 34.3058 3.96445 33.5698C3.54845 32.8338 3.32445 32.0338 3.29245 31.1698V16.0498C3.32445 15.1858 3.54845 14.3858 3.96445 13.6498C4.38045 12.9138 4.95645 12.3218 5.69245 11.8738L18.7964 4.33784C19.5644 3.92184 20.3724 3.71384 21.2204 3.71384C22.0684 3.71384 22.8604 3.92184 23.5964 4.33784L36.7004 11.9218C37.4364 12.3378 38.0204 12.9138 38.4524 13.6498C38.8844 14.3858 39.1004 15.1858 39.1004 16.0498V31.1698C39.1004 32.0338 38.8844 32.8338 38.4524 33.5698C38.0204 34.3058 37.4364 34.8978 36.7004 35.3458L27.7244 40.5298C27.3724 40.7218 27.1484 41.0018 27.0524 41.3698C26.9564 41.7378 27.0044 42.0978 27.1964 42.4498C27.5164 42.8978 27.9324 43.1378 28.4444 43.1698C28.7004 43.1698 28.9404 43.1058 29.1644 42.9778L38.0924 37.7938C39.2764 37.0898 40.2044 36.1538 40.8764 34.9858C41.5484 33.8178 41.9004 32.5458 41.9324 31.1698V16.0498C41.9004 14.6738 41.5484 13.4098 40.8764 12.2578C40.2044 11.1058 39.2764 10.1778 38.0924 9.47384ZM28.7324 28.0978C29.0204 28.3538 29.3564 28.4818 29.7404 28.4818C30.1244 28.4818 30.4604 28.3458 30.7484 28.0738C31.0364 27.8018 31.1804 27.4738 31.1804 27.0898C31.1804 26.7058 31.0364 26.3698 30.7484 26.0818L22.2044 17.5378C22.0444 17.4098 21.8844 17.3138 21.7244 17.2498C21.3724 17.0898 21.0204 17.0898 20.6684 17.2498C20.4764 17.3138 20.3164 17.4098 20.1884 17.5378L11.6444 26.0818C11.3564 26.3698 11.2124 26.7058 11.2124 27.0898C11.2124 27.4738 11.3564 27.8018 11.6444 28.0738C11.9324 28.3458 12.2604 28.4818 12.6284 28.4818C12.9964 28.4818 13.3244 28.3538 13.6124 28.0978L19.7564 21.9538V47.4418C19.7884 47.8578 19.9324 48.2018 20.1884 48.4738C20.4444 48.7458 20.7724 48.8818 21.1724 48.8818C21.5724 48.8818 21.9084 48.7458 22.1804 48.4738C22.4524 48.2018 22.5884 47.8578 22.5884 47.4418V21.9538L28.7324 28.0978Z" fill="#C7B8D8"/>
</g>
<defs>
<clipPath id="clip0_14_688">
<rect width="48.02" height="48" fill="white" transform="matrix(1 0 0 -1 0.450684 48.8818)"/>
</clipPath>
</defs>
</svg>
